<?xml version="1.0" encoding="UTF-8" standalone="no"?>
<!-- Created with Inkscape (http://www.inkscape.org/) -->

<svg
   width="118.49329mm"
   height="37.871273mm"
   viewBox="0 0 118.49327 37.871274"
   version="1.1"
   id="svg1"
   xml:space="preserve"
   sodipodi:docname="logo.svg"
   inkscape:version="1.4.2 (ebf0e940d0, 2025-05-08)"
   xmlns:inkscape="http://www.inkscape.org/namespaces/inkscape"
   xmlns:sodipodi="http://sodipodi.sourceforge.net/DTD/sodipodi-0.dtd"
   xmlns:xlink="http://www.w3.org/1999/xlink"
   xmlns="http://www.w3.org/2000/svg"
   xmlns:svg="http://www.w3.org/2000/svg"><sodipodi:namedview
     id="namedview1"
     pagecolor="#ffffff"
     bordercolor="#999999"
     borderopacity="1"
     inkscape:showpageshadow="2"
     inkscape:pageopacity="0"
     inkscape:pagecheckerboard="0"
     inkscape:deskcolor="#d1d1d1"
     inkscape:document-units="mm"
     inkscape:zoom="2.2876031"
     inkscape:cx="207.42235"
     inkscape:cy="99.44907"
     inkscape:window-width="2194"
     inkscape:window-height="1174"
     inkscape:window-x="0"
     inkscape:window-y="0"
     inkscape:window-maximized="1"
     inkscape:current-layer="svg1" /><defs
     id="defs1"><linearGradient
       id="swatch6"><stop
         style="stop-color:#000080;stop-opacity:1;"
         offset="0"
         id="stop7" /></linearGradient><linearGradient
       id="id9"
       gradientUnits="userSpaceOnUse"
       xlink:href="#id8"
       x1="2132.1699"
       y1="5798.27"
       x2="9088.5303"
       y2="9174.0098"
       gradientTransform="matrix(0.00325686,0,0,0.00325686,-7.6299586,-5.4107865)">
  </linearGradient><linearGradient
       id="id8"
       gradientUnits="userSpaceOnUse"
       x1="67637.977"
       y1="13347.35"
       x2="77327.32"
       y2="18049.311">
   <stop
   offset="0"
   style="stop-color:#000080;stop-opacity:1;"
   id="stop20" />
   <stop
   offset="0.4"
   style="stop-opacity:1; stop-color:#23498A"
   id="stop21" />
   <stop
   offset="0.627451"
   style="stop-opacity:1; stop-color:#2F75B0"
   id="stop22" />
   <stop
   offset="1"
   style="stop-opacity:1; stop-color:#3BA2D7"
   id="stop23" />
  </linearGradient><radialGradient
       inkscape:collect="always"
       xlink:href="#id8"
       id="radialGradient13"
       cx="71.386597"
       cy="15.753788"
       fx="71.386597"
       fy="15.753788"
       r="47.106693"
       gradientTransform="matrix(1,0,0,0.19185104,0,12.731407)"
       gradientUnits="userSpaceOnUse" /></defs><path
     class="fil6"
     d="M 8.532372,37.649462 C 8.1759412,36.988255 8.2069465,36.976921 9.2355281,35.761363 7.573585,33.485665 7.3141761,38.556237 5.9326486,36.45172 6.3433712,35.782533 8.0110138,36.10317 6.8143458,34.353748 5.5706161,32.535443 6.3563336,31.088029 7.8231582,32.550034 c 0.00257,0.0026 2.8239588,2.111748 3.5055868,1.930048 0.176359,-0.674561 -1.184716,-1.154785 -1.6310034,-1.481123 -3.1456382,-2.30032 0.1120362,-0.397108 1.2363044,0.04762 3.302261,1.306326 7.518787,-3.472497 0.785717,-7.664923 C 9.571408,24.043962 13.297419,24.64355 8.8960981,22.213933 5.0221283,20.075478 7.0380921,20.2818 5.443566,22.113784 3.1551333,24.743015 0.55922048,33.979535 0.08238361,27.940926 -0.37165525,22.188106 4.0477409,18.265413 6.9276845,13.649954 8.9367763,10.430125 10.737983,4.4433971 11.147989,0.56516081 l 0.192546,-0.44540818 0.220554,0.45289895 C 12.112932,6.6530463 13.67997,11.110646 16.378148,16.505081 c 1.961802,3.922269 4.595364,4.475577 4.847608,10.172704 0.106499,2.406201 -0.797247,4.776999 -2.296607,6.718576 -1.409797,1.825699 -3.54506,3.458395 -5.785877,4.112861 -1.593093,0.465242 -2.94596,0.32028 -4.6109326,0.140273 z M 6.6697086,23.431477 c -0.3476698,0.03602 -0.7170628,0.911172 -0.9027364,1.239366 -1.3999939,2.47466 4.0149918,1.819966 7.7518808,6.677019 0.703319,0.914135 3.137887,-2.220723 -4.1166388,-6.36879 C 9.0100231,24.754805 6.9243299,23.405129 6.6697086,23.43151 Z m 0.3045164,1.144982 c 0.2902188,0 0.5254618,0.235243 0.5254618,0.525462 0,0.290219 -0.235243,0.525462 -0.5254618,0.525462 -0.2902188,0 -0.5254618,-0.235243 -0.5254618,-0.525462 0,-0.290219 0.235243,-0.525462 0.5254618,-0.525462 z m -0.1210575,8.760237 c 0.4997001,-0.900294 1.8398003,0.837925 2.9294153,1.258841 2.8372462,1.096031 -0.7493709,1.491121 -2.9294153,-1.258841 z M 8.137152,17.775679 c 3.587562,-3.318968 9.087747,1.383938 9.428936,4.06391 0.1618,1.271185 -0.879743,2.722116 -1.488483,3.754346 -1.345898,2.282309 -0.80832,1.527206 -2.449224,0.233842 -2.291527,-1.806026 -0.990737,-0.931266 -0.33816,-2.900103 0.879743,-2.653983 -4.0431962,-3.419964 -5.153069,-5.151962 z"
     id="path59"
     style="clip-rule:evenodd;fill:url(#id9);fill-rule:evenodd;stroke:#000000;stroke-width:0.0999999;image-rendering:optimizeQuality;shape-rendering:geometricPrecision;text-rendering:geometricPrecision" /><path
     class="fil3"
     d="M 3.1130547,19.787833 C 5.3896975,16.32667 9.5358757,12.528845 11.125061,2.9399328 12.316127,13.862139 3.0957282,19.805582 3.1130547,19.787833 Z"
     id="path60"
     style="clip-rule:evenodd;display:inline;fill:#3497d0;fill-rule:evenodd;stroke:#000000;stroke-width:0.0999999;image-rendering:optimizeQuality;shape-rendering:geometricPrecision;text-rendering:geometricPrecision" /><path
     class="fil4"
     d="m 32.064912,23.042478 c -0.609033,0.56627 -1.233829,0.990965 -1.87048,1.274084 -0.636684,0.283118 -1.285222,0.424694 -1.949589,0.424694 -1.134951,0 -2.072145,-0.336694 -2.807706,-1.01005 -0.73947,-0.677264 -1.107235,-1.526653 -1.107235,-2.555853 0,-1.400352 0.537805,-2.425677 1.609475,-3.076105 1.071605,-0.65427 2.764195,-0.9795 5.073602,-0.9795 h 0.577376 v -1.465424 c 0,-1.411817 -0.707879,-2.115787 -2.123603,-2.115787 -0.77116,0 -1.486855,0.248661 -2.147281,0.742206 l -0.14239,1.071344 h -1.874453 v -2.441082 c 1.546227,-0.68482 3.12017,-1.025357 4.717757,-1.025357 3.341571,0 5.010354,1.243469 5.010354,3.726532 v 5.398603 c 0,1.201391 0.328259,1.802021 0.980771,1.802021 0.122555,0 0.264913,-0.01531 0.434953,-0.04586 l 0.150272,1.694935 c -0.593172,0.187497 -1.178462,0.279275 -1.747892,0.279275 -1.253565,0 -2.178904,-0.56627 -2.783964,-1.698778 z M 31.590387,21.75693 v -3.145052 h -0.462734 c -1.138859,0 -1.993036,0.183654 -2.566439,0.550963 -0.573402,0.367309 -0.862058,0.918239 -0.862058,1.660543 0,0.531878 0.170041,0.975657 0.506181,1.335312 0.340049,0.359623 0.76318,0.539499 1.273335,0.539499 0.328259,0 0.672281,-0.08038 1.028191,-0.237262 0.351936,-0.156883 0.715792,-0.390237 1.083557,-0.70397 z m 11.871418,-7.277193 c 0.518036,-0.864631 1.138924,-1.511281 1.862598,-1.943596 0.723674,-0.432381 1.554109,-0.650428 2.487329,-0.650428 1.142898,0 2.036612,0.344315 2.681178,1.0292 0.64463,0.688663 0.96491,1.63755 0.96491,2.850372 v 7.047617 h 1.708353 v 1.652921 h -6.572409 v -1.652921 h 1.423606 v -6.661158 c 0,-0.631277 -0.126529,-1.109515 -0.375678,-1.427124 -0.24915,-0.317609 -0.62877,-0.474394 -1.134951,-0.474394 -0.486412,0 -0.980706,0.15304 -1.486854,0.455244 -0.510155,0.302269 -1.028191,0.753768 -1.558082,1.358241 v 6.749191 h 1.423606 v 1.652921 h -6.572409 v -1.652921 h 1.708354 v -8.9989 h -1.708354 v -1.652856 h 5.148803 z m 19.254491,9.878903 c -0.703905,0.256348 -1.427579,0.382616 -2.171023,0.382616 -1.40781,0 -2.463652,-0.340537 -3.171563,-1.025357 -0.707813,-0.684885 -1.063723,-1.710243 -1.063723,-3.07617 v -6.825727 h -1.708353 v -1.652856 h 1.708353 v -2.066087 l 3.440384,-0.5509632 v 2.6170172 h 2.823535 v 1.652857 h -2.823535 v 6.894577 c 0,0.715499 0.150337,1.254998 0.446874,1.614621 0.296602,0.355844 0.739535,0.535656 1.324793,0.535656 0.35591,0 0.755298,-0.07647 1.194225,-0.233354 v 1.73317 z m 8.901585,0.382616 c -2.056382,0 -3.673738,-0.573891 -4.848195,-1.717863 -1.178462,-1.147815 -1.767693,-2.716515 -1.767693,-4.709941 0,-1.993361 0.589264,-3.56206 1.767693,-4.709876 1.174457,-1.143972 2.791846,-1.717863 4.848195,-1.717863 2.044494,0 3.657942,0.573891 4.832431,1.717863 1.178462,1.147816 1.767628,2.716515 1.767628,4.709876 0,1.993426 -0.589199,3.562126 -1.767628,4.709941 -1.174456,1.143972 -2.787937,1.717863 -4.832431,1.717863 z m -0.0079,-1.652856 c 0.877919,0 1.589706,-0.440002 2.135425,-1.323784 0.545752,-0.880003 0.81858,-2.031694 0.81858,-3.451164 0,-1.419437 -0.272795,-2.571096 -0.81858,-3.451099 C 73.19972,13.978571 72.4879,13.53857 71.609981,13.53857 c -0.885801,0 -1.59762,0.440001 -2.139399,1.323783 -0.541778,0.880003 -0.814671,2.031694 -0.814671,3.451099 0,1.419502 0.272893,2.571161 0.814671,3.451164 0.541779,0.883782 1.253566,1.323784 2.139399,1.323784 z m 13.757758,-8.608696 c 0.518037,-0.864631 1.138859,-1.51128 1.862533,-1.943596 0.723675,-0.432381 1.554174,-0.650427 2.487395,-0.650427 1.142832,0 2.036612,0.344315 2.681177,1.0292 0.644565,0.688663 0.96491,1.637549 0.96491,2.850371 v 7.047617 h 1.708353 v 1.652922 h -6.572408 v -1.652922 h 1.423606 v -6.661158 c 0,-0.631277 -0.126529,-1.109514 -0.375679,-1.427123 -0.24915,-0.317609 -0.628769,-0.474395 -1.134951,-0.474395 -0.486412,0 -0.980705,0.15304 -1.486854,0.455244 -0.510154,0.30227 -1.028191,0.753768 -1.558082,1.358241 v 6.749191 h 1.423606 v 1.652922 H 80.218937 V 22.812869 H 81.92729 V 13.81397 h -1.708353 v -1.652857 h 5.148802 z m 16.288601,-2.318591 v 10.651756 h 1.70835 v 1.652922 h -6.857089 v -1.652922 h 1.708353 V 13.81397 H 96.507619 V 12.161113 Z M 98.215972,10.095026 V 6.7663199 h 3.440388 v 3.3287061 z m 13.627258,14.646197 c -2.05638,0 -3.67374,-0.573891 -4.84826,-1.717863 -1.17846,-1.147815 -1.76763,-2.716514 -1.76763,-4.709941 0,-1.993361 0.5892,-3.56206 1.76763,-4.709875 1.17452,-1.143972 2.79191,-1.717863 4.84826,-1.717863 2.04443,0 3.65788,0.573891 4.83237,1.717863 1.17846,1.147815 1.76769,2.716514 1.76769,4.709875 0,1.993427 -0.58927,3.562126 -1.76769,4.709941 -1.17446,1.143972 -2.78794,1.717863 -4.83237,1.717863 z m -0.008,-1.652856 c 0.87792,0 1.58971,-0.440002 2.13549,-1.323783 0.54569,-0.880004 0.81858,-2.031695 0.81858,-3.451165 0,-1.419437 -0.27289,-2.571095 -0.81858,-3.451099 -0.54575,-0.883781 -1.25757,-1.323783 -2.13549,-1.323783 -0.8858,0 -1.59762,0.440002 -2.1394,1.323783 -0.54177,0.880004 -0.81457,2.031695 -0.81457,3.451099 0,1.419503 0.2728,2.571161 0.81457,3.451165 0.54178,0.883781 1.25357,1.323783 2.1394,1.323783 z"
     id="path61"
     style="clip-rule:evenodd;fill:url(#radialGradient13);fill-rule:nonzero;stroke:#000000;stroke-width:0.0999999;image-rendering:optimizeQuality;shape-rendering:geometricPrecision;text-rendering:geometricPrecision;font-variation-settings:normal;opacity:1;vector-effect:none;fill-opacity:1;stroke-linecap:butt;stroke-linejoin:miter;stroke-miterlimit:4;stroke-dasharray:none;stroke-dashoffset:0;stroke-opacity:1;-inkscape-stroke:none;stop-color:#000000;stop-opacity:1" /><g
     id="_2611318356608"
     style="clip-rule:evenodd;display:inline;fill:#b3b3b3;fill-rule:evenodd;stroke:none;stroke-width:0;image-rendering:optimizeQuality;shape-rendering:geometricPrecision;text-rendering:geometricPrecision"
     transform="matrix(0.00325686,0,0,0.00325686,-7.6299586,-5.4107865)">
     <path
   class="fil5"
   d="m 13375.82,10066.46 c 78.67,0 152.02,17.29 220.07,52.16 67.7,34.85 119.49,84.47 154.67,148.54 35.16,64.09 52.76,134.11 52.76,210.38 0,110 -32.53,202.13 -97.91,276.12 -79,89.6 -187.87,134.4 -326.59,134.4 -136.43,0 -241.64,-40.84 -315.32,-122.76 -73.68,-81.65 -110.52,-176.64 -110.52,-284.37 0,-111.14 37.5,-207.81 112.84,-290.6 75.36,-82.48 178.57,-123.88 310,-123.88 z m 4.33,57.84 c -32.86,0 -61.09,10.77 -84.63,32.01 -23.57,21.27 -39.18,63.22 -46.47,125.89 -7.64,62.93 -11.29,149.97 -11.29,261.67 0,59.27 4.64,114.54 13.61,166.14 6.98,39.12 22.24,69.19 45.48,89.58 23.21,20.42 49.78,30.63 79.31,30.63 29.22,0 53.45,-6.81 72.69,-20.71 25.24,-18.7 41.83,-45.06 50.47,-78.82 12.94,-52.43 19.24,-158.75 19.24,-318.66 0,-93.83 -5.96,-158.48 -18.24,-193.62 -12.3,-35.16 -30.54,-60.68 -54.44,-76.83 -16.59,-11.64 -38.5,-17.29 -65.71,-17.29 z"
   id="path62"
   style="fill:#b3b3b3;fill-rule:nonzero;stroke:none;stroke-width:0" />
     <path
   class="fil5"
   d="m 14293.22,9738.15 v 429.51 c 76.68,-67.47 160.3,-101.2 251.25,-101.2 62.06,0 120.81,15.57 175.92,46.78 55.08,31.17 98.24,75.69 129.43,133.24 31.21,57.28 46.8,123.61 46.8,198.74 0,84.76 -19.9,161.61 -59.41,230.48 -39.49,69.19 -92.26,121.91 -158.65,157.92 -66.04,36.28 -141.73,54.44 -226.69,54.44 -49.45,0 -93.27,-6.52 -131.44,-19.57 -38.17,-13.05 -76,-34.29 -112.84,-63.8 l -150.36,83.37 h -32.86 v -988.3 c 0,-45.66 -2.32,-73.72 -6.63,-84.49 -6.65,-15.88 -16.92,-27.5 -30.54,-35.16 -13.94,-7.66 -37.5,-11.91 -70.35,-13.05 v -28.91 z m 0,503.79 v 344.73 c 0,70.04 1.99,114.83 5.96,134.11 6.32,32.62 21.91,58.98 46.47,79.11 24.56,20.13 56.1,30.34 94.26,30.34 32.86,0 61.4,-7.93 84.97,-24.1 23.57,-15.88 43.49,-47.63 59.08,-95.26 15.95,-47.34 23.9,-132.97 23.9,-256.84 0,-118.51 -17.58,-200.17 -52.43,-244.4 -25.22,-32.04 -59.08,-47.92 -101.91,-47.92 -55.75,0 -109.19,26.67 -160.3,80.24 z"
   id="path63"
   style="fill:#b3b3b3;fill-rule:nonzero;stroke:none;stroke-width:0" />
     <path
   class="fil5"
   d="m 15426.69,10088.55 0.66,176.91 c 59.74,-80.22 112.51,-133.53 157.65,-159.6 45.14,-26.38 88.61,-39.41 130.44,-39.41 36.18,0 65.38,9.63 86.95,28.62 21.58,19.01 32.53,45.93 32.53,80.8 0,36.86 -10.62,65.77 -31.54,86.19 -20.89,20.42 -46.14,30.61 -76,30.61 -34.19,0 -63.74,-9.34 -88.61,-28.06 -25.22,-18.99 -40.17,-29.49 -44.48,-31.46 -6.65,-3.42 -13.94,-5.11 -22.24,-5.11 -18.6,0 -36.51,5.96 -53.1,18.14 -26.57,18.99 -46.49,45.93 -60.07,80.8 -20.58,53.59 -30.88,112.84 -30.88,177.76 l 0.66,178.32 v 46.78 c 0,31.77 2.32,52.16 6.98,61.23 7.62,15.03 19.24,26.09 34.5,32.91 15.61,7.08 41.5,11.33 78.01,13.03 v 28.93 h -493.87 v -28.93 c 39.82,-2.82 66.7,-12.18 80.64,-27.77 13.96,-15.88 20.92,-57.57 20.92,-125.33 v -430.36 c 0,-45.08 -2.65,-73.7 -7.95,-86.19 -6.32,-15.86 -15.95,-27.21 -28.23,-34.58 -12.28,-7.37 -34.19,-12.47 -65.38,-15.3 v -28.93 h 372.4 z"
   id="path64"
   style="fill:#b3b3b3;fill-rule:nonzero;stroke:none;stroke-width:0" />
     <path
   class="fil5"
   d="m 16294.61,9802.8 v 285.75 h 215.08 v 81.65 h -215.08 v 479.98 c 0,45.08 2.34,73.99 7.31,87.04 4.64,13.05 13.27,23.55 25.55,31.48 12.28,8.22 23.57,12.2 33.86,12.2 42.16,0 81.65,-27.23 119.16,-81.65 l 29.2,18.14 c -52.43,105.76 -137.73,158.77 -255.56,158.77 -57.76,0 -106.54,-13.63 -146.37,-41.11 -39.82,-27.52 -65.4,-58.13 -76.35,-91.86 -6.3,-19.01 -9.61,-70.04 -9.61,-153.1 v -419.88 h -119.49 v -29.2 c 81.96,-49.33 151.67,-101.2 209.42,-155.64 57.42,-54.42 107.87,-115.39 150.69,-182.56 h 32.18 z"
   id="path65"
   style="fill:#b3b3b3;fill-rule:nonzero;stroke:none;stroke-width:0" />
     <path
   class="fil5"
   d="m 17839.33,10865.94 h -790.6 v -18.43 l 500.17,-707.91 h -146.03 c -63.06,0 -108.2,4.8 -135.41,14.45 -27.21,9.63 -49.45,25.22 -66.39,46.49 -16.59,21.27 -34.19,59.54 -52.43,114.27 h -34.19 v -226.26 h 764.72 v 22.41 l -494.2,700.54 h 62.06 c 124.13,0 213.75,-15.03 268.83,-45.35 55.1,-30.07 96.25,-85.34 124.15,-165.58 h 27.21 l -27.87,265.38 z"
   id="path66"
   style="fill:#b3b3b3;fill-rule:nonzero;stroke:none;stroke-width:0" />
     <path
   class="fil5"
   d="m 18480.89,10750.26 c -110.85,83.93 -210.75,125.89 -298.72,125.89 -52.1,0 -95.26,-14.48 -129.76,-43.67 -34.19,-28.91 -51.46,-65.48 -51.46,-109.15 0,-59.25 29.88,-112.55 89.63,-159.89 59.74,-47.34 189.85,-110.27 390.31,-188.82 v -77.97 c 0,-58.4 -3.64,-95.26 -11.27,-110.56 -7.31,-15.03 -21.58,-28.35 -42.49,-39.7 -20.92,-11.33 -44.48,-17 -70.37,-17 -42.47,0 -77.32,7.93 -104.56,24.08 -16.92,9.94 -25.22,21.56 -25.22,34.89 0,11.62 8.97,25.78 27.23,43.07 24.54,23.81 36.84,46.78 36.84,68.9 0,26.94 -11.62,50.18 -35.51,69.19 -23.57,18.99 -54.44,28.62 -92.61,28.62 -40.82,0 -75.01,-10.48 -102.57,-31.46 -27.54,-20.98 -41.48,-45.64 -41.48,-73.72 0,-39.97 18.58,-77.97 55.42,-114.25 37.19,-36.01 88.63,-63.78 154.67,-83.35 66.39,-19.28 135.1,-28.91 206.46,-28.91 86.29,0 154.67,15.57 204.78,46.78 50.45,31.17 82.98,64.92 97.91,101.49 8.97,23.23 13.61,76.54 13.61,159.89 v 300.81 c 0,35.14 1.66,57.55 4.99,66.62 3.31,9.07 7.95,15.88 14.6,20.42 6.63,4.25 13.94,6.52 22.24,6.52 17.25,0 34.52,-9.92 52.43,-29.78 l 29.2,19.28 c -32.51,41.11 -66.04,71.15 -100.89,89.58 -34.52,18.72 -74.01,28.08 -118.16,28.08 -51.77,0 -92.61,-10.5 -121.81,-31.19 -29.2,-20.98 -46.8,-52.45 -53.45,-94.7 z m 0,-61.23 v -258.56 c -78.32,39.41 -136.74,81.36 -175.23,126.15 -25.22,29.78 -37.83,60.12 -37.83,90.45 0,25.51 10.62,47.9 32.18,67.18 16.28,15.03 38.85,22.41 68.05,22.41 32.53,0 70.04,-15.88 112.84,-47.63 z"
   id="path67"
   style="fill:#b3b3b3;fill-rule:nonzero;stroke:none;stroke-width:0" />
     <path
   class="fil5"
   d="m 20055.13,10098.76 h 305.7 v 91.86 h -173.27 c 31.87,26.94 53.78,51.61 66.39,73.7 15.59,29.78 23.23,60.97 23.23,93.56 0,55.29 -17.93,103.21 -54.11,143.76 -35.85,40.53 -84.63,72.29 -146.7,95.24 -61.73,22.97 -116.84,34.31 -164.63,34.31 -3.98,0 -42.8,-1.41 -116.5,-4.25 -29.53,0 -54.09,8.22 -73.68,24.66 -19.9,16.44 -29.86,36.28 -29.86,58.96 0,20.13 8.97,36.57 26.88,49.35 17.93,12.76 46.8,19.28 87.29,19.28 l 168.61,-1.72 c 136.76,0 230.69,12.76 282.13,38.29 73.35,35.43 110.19,89.85 110.19,163.57 0,47.07 -16.92,89.87 -50.78,128.14 -33.53,38.56 -78.01,66.91 -133.42,85.05 -83.64,27.23 -179.89,40.84 -289.09,40.84 -81.65,0 -156.33,-6.81 -224.04,-20.42 -67.38,-13.34 -115.84,-32.33 -145.04,-56.14 -29.22,-24.1 -43.82,-49.33 -43.82,-75.98 0,-25.22 11.29,-48.19 33.53,-68.32 22.24,-20.13 64.05,-37.15 124.79,-50.76 -84.3,-35.72 -126.44,-85.34 -126.44,-148.56 0,-38.54 17.25,-75.69 51.44,-111.7 34.19,-36.28 88.63,-67.76 162.97,-94.41 -86.62,-26.92 -149.37,-62.64 -188.2,-106.88 -38.83,-44.23 -58.09,-95.55 -58.09,-153.39 0,-75.98 36.18,-141.46 108.86,-197.02 72.35,-55.58 165.62,-83.35 279.48,-83.35 60.07,0 122.14,10.77 186.19,32.3 z m -167.94,20.42 c -37.5,0 -69.04,16.15 -94.93,48.48 -25.89,32.33 -38.83,99.23 -38.83,200.73 0,82.21 12.61,138.64 38.17,169.25 25.55,30.63 56.1,45.93 90.95,45.93 38.83,0 71.03,-15.3 96.91,-45.64 25.89,-30.34 38.83,-89.29 38.83,-176.91 0,-98.94 -14.6,-166.14 -43.82,-202.13 -20.56,-26.36 -49.78,-39.7 -87.29,-39.7 z m -56.43,862.44 c -66.04,0 -109.86,4.54 -131.44,14.16 -36.84,17 -55.42,39.97 -55.42,69.17 0,28.08 19.24,53.59 57.4,76.27 38.19,22.97 110.21,34.31 216.09,34.31 90.27,0 160.97,-10.21 212.74,-30.63 51.46,-20.13 77.35,-48.75 77.35,-85.61 0,-13.9 -4.97,-25.51 -14.6,-34.87 -17.6,-16.44 -43.82,-27.79 -79.33,-33.73 -35.51,-5.96 -129.78,-9.07 -282.79,-9.07 z"
   id="path68"
   style="fill:#b3b3b3;fill-rule:nonzero;stroke:none;stroke-width:0" />
     <path
   class="fil5"
   d="m 20844.74,10088.55 0.66,176.91 c 59.74,-80.22 112.53,-133.53 157.65,-159.6 45.14,-26.38 88.63,-39.41 130.44,-39.41 36.18,0 65.4,9.63 86.97,28.62 21.56,19.01 32.51,45.93 32.51,80.8 0,36.86 -10.62,65.77 -31.52,86.19 -20.92,20.42 -46.14,30.61 -76.02,30.61 -34.17,0 -63.72,-9.34 -88.61,-28.06 -25.22,-18.99 -40.15,-29.49 -44.48,-31.46 -6.63,-3.42 -13.94,-5.11 -22.24,-5.11 -18.58,0 -36.51,5.96 -53.1,18.14 -26.55,18.99 -46.47,45.93 -60.07,80.8 -20.58,53.59 -30.88,112.84 -30.88,177.76 l 0.66,178.32 v 46.78 c 0,31.77 2.34,52.16 6.98,61.23 7.64,15.03 19.26,26.09 34.52,32.91 15.59,7.08 41.48,11.33 77.99,13.03 v 28.93 h -493.87 v -28.93 c 39.82,-2.82 66.72,-12.18 80.66,-27.77 13.94,-15.88 20.92,-57.57 20.92,-125.33 v -430.36 c 0,-45.08 -2.67,-73.7 -7.97,-86.19 -6.32,-15.86 -15.92,-27.21 -28.23,-34.58 -12.26,-7.37 -34.17,-12.47 -65.38,-15.3 v -28.93 h 372.4 z"
   id="path69"
   style="fill:#b3b3b3;fill-rule:nonzero;stroke:none;stroke-width:0" />
     <path
   class="fil5"
   d="m 21854.08,10750.26 c -110.85,83.93 -210.77,125.89 -298.72,125.89 -52.12,0 -95.26,-14.48 -129.78,-43.67 -34.19,-28.91 -51.44,-65.48 -51.44,-109.15 0,-59.25 29.86,-112.55 89.6,-159.89 59.74,-47.34 189.85,-110.27 390.33,-188.82 v -77.97 c 0,-58.4 -3.67,-95.26 -11.29,-110.56 -7.31,-15.03 -21.58,-28.35 -42.49,-39.7 -20.89,-11.33 -44.48,-17 -70.37,-17 -42.47,0 -77.32,7.93 -104.54,24.08 -16.94,9.94 -25.24,21.56 -25.24,34.89 0,11.62 8.97,25.78 27.23,43.07 24.56,23.81 36.84,46.78 36.84,68.9 0,26.94 -11.62,50.18 -35.51,69.19 -23.57,18.99 -54.44,28.62 -92.61,28.62 -40.82,0 -75.01,-10.48 -102.55,-31.46 -27.56,-20.98 -41.5,-45.64 -41.5,-73.72 0,-39.97 18.58,-77.97 55.44,-114.25 37.17,-36.01 88.61,-63.78 154.67,-83.35 66.37,-19.28 135.08,-28.91 206.44,-28.91 86.29,0 154.67,15.57 204.78,46.78 50.45,31.17 82.98,64.92 97.91,101.49 8.97,23.23 13.61,76.54 13.61,159.89 v 300.81 c 0,35.14 1.66,57.55 4.99,66.62 3.31,9.07 7.95,15.88 14.6,20.42 6.65,4.25 13.94,6.52 22.24,6.52 17.25,0 34.52,-9.92 52.43,-29.78 l 29.22,19.28 c -32.53,41.11 -66.06,71.15 -100.91,89.58 -34.52,18.72 -74.01,28.08 -118.16,28.08 -51.77,0 -92.59,-10.5 -121.81,-31.19 -29.2,-20.98 -46.8,-52.45 -53.43,-94.7 z m 0,-61.23 v -258.56 c -78.34,39.41 -136.76,81.36 -175.25,126.15 -25.22,29.78 -37.83,60.12 -37.83,90.45 0,25.51 10.62,47.9 32.18,67.18 16.28,15.03 38.85,22.41 68.05,22.41 32.53,0 70.04,-15.88 112.86,-47.63 z"
   id="path70"
   style="fill:#b3b3b3;fill-rule:nonzero;stroke:none;stroke-width:0" />
     <path
   class="fil5"
   d="m 23232.15,9886.13 h 111.51 v 69.75 h -111.51 v 677.02 c 0,59.83 1.99,95.26 5.96,106.32 4.99,18.14 14.95,31.77 29.55,40.55 14.27,8.78 39.82,14.16 76,16.44 v 28.91 l -384.35,62.95 v -123.61 c -46.14,47.9 -86.95,80.51 -122.8,97.81 -36.18,17.29 -76.68,25.8 -122.14,25.8 -115.84,0 -207.46,-44.23 -274.82,-132.68 -54.44,-71.73 -81.65,-159.91 -81.65,-264.53 0,-83.35 16.92,-158.19 50.45,-224.25 33.86,-66.06 80,-115.95 138.41,-149.68 58.75,-33.75 121.81,-50.47 189.17,-50.47 43.16,0 81.98,7.08 115.51,21.54 33.86,14.19 69.7,39.12 107.87,75.13 v -207.25 h -324.6 v -69.75 h 323.61 c -0.66,-33.15 -2.98,-54.15 -6.65,-62.35 -8.28,-17.87 -20.56,-30.63 -36.16,-38.29 -15.95,-7.64 -44.81,-11.62 -86.64,-11.62 v -35.72 h 403.27 v 147.98 z m -272.83,379.62 c -47.79,-78.53 -106.54,-117.66 -175.92,-117.66 -23.9,0 -43.47,5.38 -59.08,16.44 -23.88,17.31 -43.47,47.36 -58.73,90.45 -15.28,43.09 -22.9,109.15 -22.9,197.89 0,97.81 8.28,170.1 25.22,217.17 16.92,47.05 39.82,80.78 69.04,101.78 14.93,10.48 35.16,15.86 61.07,15.86 57.07,0 110.85,-37.98 161.3,-114.25 z"
   id="path71"
   style="fill:#b3b3b3;fill-rule:nonzero;stroke:none;stroke-width:0" />
     <path
   class="fil5"
   d="m 24226.21,10449.19 h -499.86 c 5.98,102.9 38.19,184.28 96.58,244.09 44.81,45.93 98.59,68.9 161.65,68.9 39.16,0 74.34,-9.36 106.21,-27.79 31.85,-18.41 66.04,-51.87 102.22,-99.79 l 33.2,18.72 c -49.12,85.34 -103.89,145.99 -163.31,181.45 -59.74,35.43 -128.76,53.3 -207.43,53.3 -134.75,0 -236.99,-44.23 -306.36,-132.68 -55.75,-71.17 -83.64,-159.62 -83.64,-265.38 0,-129.28 41.17,-232.18 123.15,-308.74 81.98,-76.54 178.24,-114.81 288.42,-114.81 91.94,0 171.92,32.04 239.64,96.38 67.72,64.36 104.22,159.91 109.53,286.35 z m -238.97,-54.44 c 0,-89.02 -5.63,-150.26 -16.92,-183.43 -11.62,-33.15 -29.22,-58.4 -53.12,-75.4 -13.61,-9.92 -31.85,-15.03 -54.75,-15.03 -33.53,0 -61.07,14.19 -82.65,42.24 -38.19,49.33 -57.42,116.79 -57.42,202.71 v 28.91 z"
   id="path72"
   style="fill:#b3b3b3;fill-rule:nonzero;stroke:none;stroke-width:0" />
     <path
   class="fil5"
   d="m 24751.62,10888.06 -308.01,-602.18 c -36.84,-73.14 -65.71,-119.63 -86.62,-139.2 -14.93,-14.45 -36.84,-24.1 -66.04,-29.2 v -28.93 h 483.25 v 28.93 c -30.19,0 -51.11,4.83 -62.06,14.16 -15.61,12.49 -23.23,26.94 -23.23,43.67 0,20.69 14.27,59.54 42.47,116.5 l 150.36,291.45 119.16,-251.46 c 34.19,-72.58 51.44,-123.9 51.44,-153.95 0,-17.29 -7.29,-31.48 -21.91,-42.53 -14.6,-10.77 -40.15,-16.71 -77.32,-17.85 v -28.93 h 296.73 v 28.93 c -28.56,3.4 -51.77,12.47 -70.04,27.79 -17.91,15.01 -45.14,59.52 -81.65,133.24 l -301.7,609.55 h -44.81 z"
   id="path73"
   style="fill:#b3b3b3;fill-rule:nonzero;stroke:none;stroke-width:0" />
     <path
   class="fil5"
   d="m 25552.85,9712.63 c 42.16,0 77.66,12.47 106.88,37.71 29.22,25.22 43.82,55.56 43.82,90.99 0,35.72 -14.6,65.77 -44.15,90.72 -29.55,24.95 -65.04,37.42 -106.54,37.42 -41.81,0 -76.99,-12.47 -106.21,-37.42 -29.2,-24.95 -43.8,-55 -43.8,-90.72 0,-35.43 14.6,-65.77 43.8,-90.99 29.22,-25.24 64.4,-37.71 106.21,-37.71 z m 136.76,375.92 v 615.78 c 0,55.29 7.62,90.72 22.55,106.32 15.28,15.3 44.81,24.1 88.96,26.36 v 28.93 h -495.88 v -28.93 c 41.17,-1.12 71.69,-11.06 91.61,-30.34 13.27,-12.76 19.92,-47.05 19.92,-102.34 v -454.17 c 0,-55.56 -7.64,-90.72 -22.9,-106.32 -15.28,-15.3 -44.81,-24.08 -88.63,-26.36 v -28.93 z"
   id="path74"
   style="fill:#b3b3b3;fill-rule:nonzero;stroke:none;stroke-width:0" />
     <path
   class="fil5"
   d="m 26260.8,10088.55 v 100.37 c 46.47,-42.8 91.28,-73.72 134.11,-93.27 42.8,-19.57 88.61,-29.2 137.73,-29.2 59.08,0 107.87,13.87 146.7,41.95 38.85,28.06 64.73,62.93 77.68,104.33 10.29,31.75 15.59,92.42 15.59,182 v 302.8 c 0,59.81 6.32,96.96 18.93,111.7 12.61,14.74 38.83,23.81 78.67,27.77 v 28.93 h -460.03 V 10837 c 34.52,-3.96 59.08,-16.15 74.01,-36.57 10.29,-13.9 15.59,-48.19 15.59,-102.9 v -345.89 c 0,-63.78 -2.98,-104.04 -8.61,-120.48 -5.98,-16.73 -15.61,-29.49 -29.55,-38.85 -13.94,-9.07 -29.2,-13.61 -46.12,-13.61 -55.44,0 -106.9,33.44 -154.69,100.35 v 418.47 c 0,58.11 6.32,94.97 18.93,110.27 12.61,15.59 36.18,25.24 70.7,29.2 v 28.93 h -460.03 v -28.93 c 38.19,-3.4 65.07,-13.87 81.32,-31.46 10.95,-12.2 16.28,-48.21 16.28,-108.01 v -440.57 c 0,-59.27 -6.32,-96.4 -18.93,-110.85 -12.61,-14.74 -38.83,-24.1 -78.67,-28.64 v -28.93 h 370.41 z"
   id="path75"
   style="fill:#b3b3b3;fill-rule:nonzero;stroke:none;stroke-width:0" />
     <path
   class="fil5"
   d="m 27569.52,10068.15 13.94,265.36 h -33.86 c -39.16,-78.53 -79.64,-132.12 -121.81,-161.03 -41.81,-28.64 -83.64,-43.09 -125.45,-43.09 -26.24,0 -48.81,7.66 -67.38,22.68 -18.6,15.3 -27.87,32.88 -27.87,52.72 0,14.74 6.3,29.22 19.24,43.11 20.58,22.68 78.34,61.23 172.93,116.24 94.93,54.98 156.99,101.76 187.18,140.05 29.88,38.27 44.81,81.36 44.81,128.7 0,43.09 -12.61,85.34 -37.83,126.73 -24.89,41.4 -60.41,73.14 -106.21,95.26 -45.81,22.12 -96.25,33.17 -151.69,33.17 -43.14,0 -100.89,-11.64 -172.91,-35.16 -19.59,-5.94 -32.53,-9.07 -39.82,-9.07 -21.25,0 -38.85,14.16 -53.12,42.51 h -33.86 l -15.92,-278.96 h 33.86 c 28.87,72.58 68.69,127 119.49,163.31 50.45,36.28 98.24,54.42 143.38,54.42 31.19,0 56.43,-8.22 76,-24.37 19.59,-16.44 29.55,-36.01 29.55,-59.25 0,-26.65 -9.63,-49.33 -28.89,-68.9 -19.57,-19.28 -62.73,-48.48 -129.78,-87.6 -98.9,-58.71 -162.62,-103.21 -191.84,-134.11 -42.47,-45.37 -63.72,-95.26 -63.72,-149.97 0,-59.83 23.9,-113.69 72.02,-161.9 48.13,-48.48 117.83,-72.56 208.76,-72.56 49.14,0 96.6,10.48 142.39,31.46 17.27,8.51 31.54,12.76 42.49,12.76 11.62,0 21.25,-2.26 28.2,-6.52 6.98,-4.25 18.26,-16.15 33.86,-35.99 z"
   id="path76"
   style="fill:#b3b3b3;fill-rule:nonzero;stroke:none;stroke-width:0" />
     <path
   class="fil5"
   d="m 28139.75,9738.15 v 743.07 l 210.75,-178.32 c 43.49,-35.74 70.7,-61.81 81.32,-78.26 10.62,-16.17 15.92,-32.04 15.92,-47.34 0,-15.03 -6.96,-27.79 -21.23,-38 -14.29,-9.92 -42.16,-17.29 -83.64,-21.83 v -28.93 h 408.91 v 28.93 c -39.16,1.7 -73.02,9.63 -102.24,24.1 -29.2,14.16 -86.29,57.26 -171.26,128.99 l -99.57,84.2 214.39,267.34 c 85.98,108.86 137.42,169.81 153.34,183.14 22.24,18.99 50.13,29.49 83.64,31.75 v 28.93 h -469.64 v -28.93 c 20.58,0 35.85,-3.4 45.14,-9.92 9.3,-6.79 14.27,-13.9 14.27,-21.83 0,-12.76 -13.61,-36.57 -40.82,-70.88 l -181.22,-226.24 -58.09,49.06 v 140.34 c 0,59.54 6.63,96.67 19.57,111.41 12.94,14.74 39.84,24.1 80,28.06 v 28.93 h -469.97 v -28.93 c 38.17,-3.4 65.04,-13.87 81.3,-31.75 10.95,-12.2 16.28,-48.19 16.28,-107.72 v -790.99 c 0,-59.25 -6.32,-96.4 -18.6,-110.85 -12.61,-14.74 -38.83,-24.1 -78.98,-28.64 v -28.91 h 370.41 z"
   id="path77"
   style="fill:#b3b3b3;fill-rule:nonzero;stroke:none;stroke-width:0" />
     <path
   class="fil5"
   d="m 29649.25,10449.19 h -499.86 c 5.98,102.9 38.17,184.28 96.58,244.09 44.81,45.93 98.57,68.9 161.65,68.9 39.16,0 74.34,-9.36 106.21,-27.79 31.85,-18.41 66.04,-51.87 102.22,-99.79 l 33.2,18.72 c -49.12,85.34 -103.89,145.99 -163.31,181.45 -59.74,35.43 -128.78,53.3 -207.43,53.3 -134.75,0 -236.99,-44.23 -306.36,-132.68 -55.75,-71.17 -83.64,-159.62 -83.64,-265.38 0,-129.28 41.17,-232.18 123.15,-308.74 81.96,-76.54 178.24,-114.81 288.42,-114.81 91.92,0 171.92,32.04 239.64,96.38 67.7,64.36 104.2,159.91 109.53,286.35 z m -238.97,-54.44 c 0,-89.02 -5.65,-150.26 -16.92,-183.43 -11.62,-33.15 -29.22,-58.4 -53.12,-75.4 -13.61,-9.92 -31.87,-15.03 -54.75,-15.03 -33.53,0 -61.09,14.19 -82.65,42.24 -38.19,49.33 -57.42,116.79 -57.42,202.71 v 28.91 z"
   id="path78"
   style="fill:#b3b3b3;fill-rule:nonzero;stroke:none;stroke-width:0" />
     <path
   class="fil5"
   d="m 31138.53,10088.55 v 608.99 c 0,59.54 6.3,96.67 19.24,111.41 12.94,14.74 39.16,24.1 78.34,28.06 v 28.93 h -370.41 v -103.77 c -43.49,44.23 -86.95,76.27 -130.44,96.11 -43.49,19.84 -91.94,29.78 -146.03,29.78 -51.13,0 -96.58,-13.34 -136.76,-40.26 -39.82,-26.94 -66.37,-58.42 -79.98,-94.14 -13.61,-35.99 -20.58,-98.94 -20.58,-188.53 v -308.16 c 0,-59.27 -6.32,-96.4 -18.93,-110.85 -12.61,-14.74 -38.83,-24.1 -78.65,-28.64 v -28.93 h 370.41 v 531.02 c 0,55.27 2.98,90.99 9.3,107.17 5.96,16.15 15.92,28.35 29.2,36.57 13.27,8.22 28.54,12.47 46.14,12.47 23.23,0 44.13,-5.38 63.06,-15.86 25.89,-14.48 57.09,-43.38 93.27,-87.33 v -415.62 c 0,-59.27 -6.32,-96.4 -18.93,-110.85 -12.61,-14.74 -38.83,-24.1 -78.65,-28.64 v -28.93 h 370.41 z"
   id="path79"
   style="fill:#b3b3b3;fill-rule:nonzero;stroke:none;stroke-width:0" />
     <path
   class="fil5"
   d="m 31941.41,10068.15 13.94,265.36 h -33.86 c -39.16,-78.53 -79.64,-132.12 -121.81,-161.03 -41.81,-28.64 -83.64,-43.09 -125.47,-43.09 -26.22,0 -48.79,7.66 -67.36,22.68 -18.6,15.3 -27.89,32.88 -27.89,52.72 0,14.74 6.32,29.22 19.26,43.11 20.58,22.68 78.34,61.23 172.93,116.24 94.93,54.98 156.99,101.76 187.18,140.05 29.88,38.27 44.81,81.36 44.81,128.7 0,43.09 -12.61,85.34 -37.83,126.73 -24.89,41.4 -60.41,73.14 -106.21,95.26 -45.81,22.12 -96.25,33.17 -151.69,33.17 -43.14,0 -100.89,-11.64 -172.91,-35.16 -19.59,-5.94 -32.53,-9.07 -39.84,-9.07 -21.23,0 -38.83,14.16 -53.1,42.51 h -33.86 l -15.92,-278.96 h 33.86 c 28.87,72.58 68.69,127 119.49,163.31 50.45,36.28 98.24,54.42 143.38,54.42 31.19,0 56.41,-8.22 76,-24.37 19.59,-16.44 29.55,-36.01 29.55,-59.25 0,-26.65 -9.63,-49.33 -28.89,-68.9 -19.59,-19.28 -62.73,-48.48 -129.78,-87.6 -98.9,-58.71 -162.62,-103.21 -191.84,-134.11 -42.47,-45.37 -63.72,-95.26 -63.72,-149.97 0,-59.83 23.9,-113.69 72.02,-161.9 48.13,-48.48 117.83,-72.56 208.76,-72.56 49.14,0 96.58,10.48 142.39,31.46 17.27,8.51 31.54,12.76 42.49,12.76 11.62,0 21.25,-2.26 28.2,-6.52 6.98,-4.25 18.26,-16.15 33.86,-35.99 z"
   id="path80"
   style="fill:#b3b3b3;fill-rule:nonzero;stroke:none;stroke-width:0" />
     <path
   class="fil5"
   d="m 32499.33,9738.15 v 966.19 c 0,55.29 7.64,90.72 22.57,106.32 15.28,15.3 44.81,24.1 88.96,26.36 v 28.93 h -495.88 v -28.93 c 41.17,-1.12 71.69,-11.06 91.61,-30.34 13.27,-12.76 19.92,-47.05 19.92,-102.34 v -804.58 c 0,-55.29 -7.64,-90.45 -22.9,-106.05 -15.28,-15.59 -44.81,-24.37 -88.63,-26.65 v -28.91 z"
   id="path81"
   style="fill:#b3b3b3;fill-rule:nonzero;stroke:none;stroke-width:0" />
     <path
   class="fil5"
   d="m 33574.38,10088.55 v 608.99 c 0,59.54 6.32,96.67 19.26,111.41 12.94,14.74 39.16,24.1 78.34,28.06 v 28.93 h -370.41 v -103.77 c -43.49,44.23 -86.97,76.27 -130.44,96.11 -43.49,19.84 -91.94,29.78 -146.03,29.78 -51.13,0 -96.6,-13.34 -136.76,-40.26 -39.82,-26.94 -66.37,-58.42 -80,-94.14 -13.61,-35.99 -20.56,-98.94 -20.56,-188.53 v -308.16 c 0,-59.27 -6.32,-96.4 -18.93,-110.85 -12.61,-14.74 -38.83,-24.1 -78.65,-28.64 v -28.93 h 370.41 v 531.02 c 0,55.27 2.98,90.99 9.28,107.17 5.98,16.15 15.95,28.35 29.22,36.57 13.27,8.22 28.54,12.47 46.14,12.47 23.23,0 44.13,-5.38 63.06,-15.86 25.89,-14.48 57.09,-43.38 93.27,-87.33 v -415.62 c 0,-59.27 -6.32,-96.4 -18.93,-110.85 -12.61,-14.74 -38.83,-24.1 -78.65,-28.64 v -28.93 h 370.39 z"
   id="path82"
   style="fill:#b3b3b3;fill-rule:nonzero;stroke:none;stroke-width:0" />
     <path
   class="fil5"
   d="m 34386.23,10098.76 h 305.7 v 91.86 h -173.27 c 31.87,26.94 53.78,51.61 66.39,73.7 15.59,29.78 23.23,60.97 23.23,93.56 0,55.29 -17.93,103.21 -54.09,143.76 -35.87,40.53 -84.66,72.29 -146.72,95.24 -61.73,22.97 -116.84,34.31 -164.63,34.31 -3.98,0 -42.8,-1.41 -116.48,-4.25 -29.55,0 -54.11,8.22 -73.68,24.66 -19.92,16.44 -29.88,36.28 -29.88,58.96 0,20.13 8.97,36.57 26.88,49.35 17.93,12.76 46.8,19.28 87.31,19.28 l 168.61,-1.72 c 136.74,0 230.67,12.76 282.11,38.29 73.35,35.43 110.19,89.85 110.19,163.57 0,47.07 -16.92,89.87 -50.78,128.14 -33.53,38.56 -77.99,66.91 -133.42,85.05 -83.64,27.23 -179.89,40.84 -289.09,40.84 -81.65,0 -156.33,-6.81 -224.04,-20.42 -67.36,-13.34 -115.82,-32.33 -145.04,-56.14 -29.2,-24.1 -43.82,-49.33 -43.82,-75.98 0,-25.22 11.29,-48.19 33.53,-68.32 22.24,-20.13 64.05,-37.15 124.81,-50.76 -84.3,-35.72 -126.47,-85.34 -126.47,-148.56 0,-38.54 17.27,-75.69 51.44,-111.7 34.19,-36.28 88.63,-67.76 162.97,-94.41 -86.62,-26.92 -149.37,-62.64 -188.2,-106.88 -38.83,-44.23 -58.09,-95.55 -58.09,-153.39 0,-75.98 36.18,-141.46 108.86,-197.02 72.35,-55.58 165.62,-83.35 279.48,-83.35 60.07,0 122.14,10.77 186.19,32.3 z m -167.94,20.42 c -37.5,0 -69.02,16.15 -94.91,48.48 -25.91,32.33 -38.85,99.23 -38.85,200.73 0,82.21 12.61,138.64 38.17,169.25 25.57,30.63 56.1,45.93 90.95,45.93 38.83,0 71.03,-15.3 96.91,-45.64 25.89,-30.34 38.83,-89.29 38.83,-176.91 0,-98.94 -14.6,-166.14 -43.8,-202.13 -20.58,-26.36 -49.8,-39.7 -87.31,-39.7 z m -56.41,862.44 c -66.06,0 -109.86,4.54 -131.44,14.16 -36.84,17 -55.44,39.97 -55.44,69.17 0,28.08 19.26,53.59 57.42,76.27 38.17,22.97 110.19,34.31 216.07,34.31 90.27,0 160.99,-10.21 212.76,-30.63 51.44,-20.13 77.32,-48.75 77.32,-85.61 0,-13.9 -4.97,-25.51 -14.6,-34.87 -17.6,-16.44 -43.82,-27.79 -79.33,-33.73 -35.51,-5.96 -129.76,-9.07 -282.77,-9.07 z"
   id="path83"
   style="fill:#b3b3b3;fill-rule:nonzero;stroke:none;stroke-width:0" />
     <path
   class="fil5"
   d="m 35570.14,10449.19 h -499.84 c 5.96,102.9 38.17,184.28 96.58,244.09 44.81,45.93 98.57,68.9 161.63,68.9 39.18,0 74.36,-9.36 106.21,-27.79 31.87,-18.41 66.06,-51.87 102.24,-99.79 l 33.17,18.72 c -49.12,85.34 -103.87,145.99 -163.28,181.45 -59.74,35.43 -128.78,53.3 -207.46,53.3 -134.75,0 -236.96,-44.23 -306.34,-132.68 -55.77,-71.17 -83.64,-159.62 -83.64,-265.38 0,-129.28 41.15,-232.18 123.13,-308.74 81.98,-76.54 178.24,-114.81 288.42,-114.81 91.94,0 171.94,32.04 239.64,96.38 67.72,64.36 104.22,159.91 109.53,286.35 z m -238.97,-54.44 c 0,-89.02 -5.63,-150.26 -16.92,-183.43 -11.62,-33.15 -29.2,-58.4 -53.1,-75.4 -13.63,-9.92 -31.87,-15.03 -54.77,-15.03 -33.53,0 -61.07,14.19 -82.65,42.24 -38.17,49.33 -57.42,116.79 -57.42,202.71 v 28.91 z"
   id="path84"
   style="fill:#b3b3b3;fill-rule:nonzero;stroke:none;stroke-width:0" />
    </g><path
     class="fil7"
     d="m 35.810822,35.408789 -1.04187,-2.354125 h -0.212868 v -0.360697 h 1.297273 v 0.360697 h -0.298035 l 0.646193,1.460898 0.652806,-1.460898 h -0.304713 v -0.360697 h 0.886551 v 0.360697 h -0.207853 l -1.051868,2.354125 z m 3.033636,-3.891852 v 3.501158 h 0.360632 v 0.360633 h -1.447479 v -0.360633 h 0.360632 v -3.140526 h -0.360632 v -0.360632 z m 0.934166,3.861758 v -0.781353 h 0.781353 v 0.781353 z m 3.882666,-1.046853 -0.270449,0.686253 h 0.363172 v 0.360633 h -0.981781 v -0.360633 h 0.220392 l 1.301475,-3.305779 h 0.55676 l 1.30903,3.305779 h 0.21365 v 0.360633 h -1.352314 v -0.360633 h 0.363108 l -0.273837,-0.686253 h -1.449238 z m 0.147764,-0.375581 h 1.152082 l -0.578614,-1.457608 z m 3.917678,-0.756308 c 0.109398,-0.188703 0.240422,-0.32979 0.393266,-0.424141 0.152682,-0.09435 0.327966,-0.141902 0.525104,-0.141902 0.241236,0 0.429873,0.07514 0.565912,0.224593 0.136039,0.150272 0.20375,0.357246 0.20375,0.621963 v 1.537662 h 0.360632 v 0.360632 h -1.387521 v -0.360632 h 0.300608 v -1.453342 c 0,-0.137797 -0.02671,-0.242115 -0.0793,-0.311453 -0.0526,-0.06927 -0.132717,-0.103536 -0.239575,-0.103536 -0.102721,0 -0.207038,0.03345 -0.313896,0.09933 -0.107704,0.06602 -0.217103,0.164504 -0.328976,0.296342 v 1.472655 h 0.300544 v 0.360632 h -1.387391 v -0.360632 h 0.360632 v -1.963431 h -0.360632 v -0.360698 h 1.086847 z m 4.064726,2.155358 c -0.148643,0.05598 -0.301325,0.08357 -0.458338,0.08357 -0.297221,0 -0.520056,-0.07432 -0.669513,-0.223779 -0.149393,-0.149392 -0.224593,-0.373106 -0.224593,-0.671206 v -1.489233 h -0.360632 v -0.360697 h 0.360632 v -0.450782 l 0.726312,-0.120179 v 0.570993 h 0.596071 v 0.360698 h -0.596071 v 1.504344 c 0,0.156069 0.03175,0.273739 0.09435,0.352262 0.06266,0.07764 0.156134,0.116889 0.279634,0.116889 0.0752,0 0.159423,-0.01674 0.252179,-0.051 v 0.378154 z m 1.879046,0.08357 c -0.434075,0 -0.775458,-0.125259 -1.023469,-0.374865 -0.248726,-0.250485 -0.373171,-0.592683 -0.373171,-1.027637 0,-0.434954 0.124445,-0.777217 0.373171,-1.027638 0.247977,-0.249605 0.589394,-0.374864 1.023469,-0.374864 0.431632,0 0.772234,0.125259 1.020146,0.374864 0.248792,0.250421 0.373172,0.592684 0.373172,1.027638 0,0.434954 -0.12438,0.777152 -0.373172,1.027637 -0.247912,0.249606 -0.588514,0.374865 -1.020146,0.374865 z m -0.0016,-0.360697 c 0.185348,0 0.335587,-0.09598 0.450783,-0.288786 0.115195,-0.192025 0.172776,-0.443324 0.172776,-0.753019 0,-0.30976 -0.05758,-0.560994 -0.172776,-0.753019 -0.115196,-0.192806 -0.265467,-0.288786 -0.450783,-0.288786 -0.187009,0 -0.337281,0.09598 -0.451596,0.288786 -0.114446,0.192025 -0.171995,0.443226 -0.171995,0.753019 0,0.309695 0.05752,0.560994 0.171995,0.753019 0.114315,0.192806 0.264587,0.288786 0.451596,0.288786 z m 2.904274,-1.878232 c 0.109398,-0.188703 0.240356,-0.32979 0.393201,-0.424141 0.152746,-0.09435 0.328063,-0.141902 0.525103,-0.141902 0.241236,0 0.429971,0.07514 0.565978,0.224593 0.136039,0.150272 0.203684,0.357246 0.203684,0.621963 v 1.537662 h 0.360632 v 0.360632 h -1.387455 v -0.360632 h 0.300608 v -1.453342 c 0,-0.137797 -0.02677,-0.242115 -0.07937,-0.311453 -0.0526,-0.06927 -0.132717,-0.103536 -0.239575,-0.103536 -0.102656,0 -0.207038,0.03345 -0.313896,0.09933 -0.107704,0.06602 -0.217102,0.164504 -0.32891,0.296342 v 1.472655 h 0.300543 v 0.360632 h -1.387456 v -0.360632 h 0.360633 v -1.963431 h -0.360633 v -0.360698 h 1.086913 z m 3.438496,-0.505954 v 2.324129 h 0.360629 v 0.360632 h -1.447479 v -0.360632 h 0.360632 v -1.963431 h -0.360632 v -0.360698 z m -0.726251,-0.450782 v -0.726247 h 0.726248 v 0.726247 z m 2.876753,3.195697 c -0.434139,0 -0.775458,-0.125258 -1.023468,-0.374864 -0.248792,-0.250485 -0.373171,-0.592684 -0.373171,-1.027638 0,-0.434953 0.124379,-0.777217 0.373171,-1.027637 0.247977,-0.249606 0.589329,-0.374865 1.023468,-0.374865 0.431567,0 0.772235,0.125259 1.020147,0.374865 0.248726,0.25042 0.373106,0.592684 0.373106,1.027637 0,0.434954 -0.12438,0.777153 -0.373106,1.027638 -0.247912,0.249606 -0.58858,0.374864 -1.020147,0.374864 z m -0.0016,-0.360697 c 0.185348,0 0.335587,-0.09598 0.450782,-0.288786 0.11513,-0.192024 0.172777,-0.443324 0.172777,-0.753019 0,-0.30976 -0.05768,-0.560994 -0.172777,-0.753018 -0.115195,-0.192807 -0.265467,-0.288786 -0.450782,-0.288786 -0.187074,0 -0.337281,0.09598 -0.451662,0.288786 -0.114381,0.192024 -0.171994,0.443226 -0.171994,0.753018 0,0.309695 0.05758,0.560995 0.171994,0.753019 0.114381,0.192806 0.264588,0.288786 0.451662,0.288786 z m 4.5797,-1.247182 v 1.187093 h 0.300544 v 0.360632 h -1.387394 v -0.360632 h 0.360632 v -2.90017 h -0.360632 v -0.360632 h 1.559385 c 0.389814,0 0.689478,0.07849 0.899968,0.236253 0.210361,0.157013 0.315493,0.380727 0.315493,0.671206 0,0.246317 -0.05839,0.454984 -0.17447,0.626164 -0.116889,0.171116 -0.292173,0.304712 -0.526797,0.398999 l 0.952566,1.32818 h 0.239575 v 0.360632 h -0.927424 l -0.972596,-1.547693 h -0.27882 z m 0,-0.345651 h 0.126855 c 0.276312,0 0.482569,-0.06501 0.61939,-0.194435 0.136919,-0.130241 0.205378,-0.324806 0.205378,-0.584346 0,-0.196258 -0.05921,-0.343207 -0.176913,-0.441695 -0.118582,-0.09767 -0.296342,-0.14695 -0.53266,-0.14695 h -0.242053 z m 4.972901,1.788147 c -0.251234,0.110277 -0.542528,0.165383 -0.874826,0.165383 -0.486736,0 -0.866584,-0.126105 -1.137849,-0.377339 -0.271264,-0.252179 -0.406554,-0.604441 -0.406554,-1.056852 0,-0.407433 0.120179,-0.737158 0.360632,-0.990965 0.240357,-0.252928 0.553439,-0.379848 0.939149,-0.379848 0.373171,0 0.65287,0.114381 0.839749,0.343143 0.186227,0.228697 0.279699,0.571872 0.279699,1.029266 v 0.105197 h -1.672952 c 0.01921,0.293052 0.09933,0.513379 0.23964,0.660328 0.139394,0.147764 0.340667,0.221206 0.602747,0.221206 0.272144,0 0.549335,-0.06507 0.830565,-0.195379 v 0.475828 z m -1.662888,-1.522615 h 0.951687 v -0.06348 c 0,-0.232084 -0.03508,-0.404861 -0.106076,-0.520121 -0.07087,-0.115195 -0.177726,-0.172711 -0.319692,-0.172711 -0.156135,0 -0.278821,0.0626 -0.366495,0.188637 -0.08842,0.125259 -0.141022,0.314678 -0.159424,0.567671 z m 2.4176,1.657905 v -3.531219 h -0.360632 v -0.360632 h 1.086913 v 1.682983 c 0.101027,-0.188703 0.227882,-0.330604 0.378968,-0.42489 0.15203,-0.09435 0.328975,-0.141153 0.530999,-0.141153 0.310509,0 0.556825,0.120178 0.739665,0.361447 0.182775,0.241301 0.273837,0.566042 0.273837,0.975169 0,0.446613 -0.103536,0.802165 -0.310574,1.068511 -0.207039,0.266281 -0.484165,0.399877 -0.829816,0.399877 -0.150271,0 -0.290479,-0.02759 -0.420721,-0.08269 -0.131122,-0.05511 -0.2513,-0.137798 -0.362294,-0.247913 h -0.04674 l -0.06097,0.300544 h -0.618608 z m 0.726313,-0.661143 c 0.10435,0.08432 0.203685,0.147699 0.298036,0.191145 0.09516,0.04257 0.185348,0.06426 0.272208,0.06426 0.176099,0 0.317186,-0.08761 0.423132,-0.262144 0.106011,-0.174405 0.158641,-0.404796 0.158641,-0.692051 0,-0.292173 -0.04416,-0.510904 -0.133596,-0.656095 -0.08842,-0.145288 -0.22202,-0.217851 -0.399812,-0.217851 -0.113502,0 -0.2229,0.03081 -0.326435,0.09259 -0.103536,0.06178 -0.201177,0.15444 -0.292173,0.27794 v 1.202173 z m 4.853538,0.525853 c -0.251235,0.110277 -0.542594,0.165383 -0.874826,0.165383 -0.486738,0 -0.866586,-0.126105 -1.13785,-0.377339 -0.271329,-0.252179 -0.406554,-0.604441 -0.406554,-1.056852 0,-0.407433 0.120178,-0.737158 0.360633,-0.990965 0.240356,-0.252928 0.553438,-0.379848 0.939148,-0.379848 0.373171,0 0.652805,0.114381 0.839749,0.343143 0.186227,0.228697 0.2797,0.571872 0.2797,1.029266 v 0.105197 h -1.672953 c 0.01922,0.293052 0.09933,0.513379 0.23964,0.660328 0.139328,0.147764 0.340603,0.221206 0.602747,0.221206 0.272078,0 0.54927,-0.06507 0.830566,-0.195379 v 0.475828 z m -1.662892,-1.522615 h 0.951688 v -0.06348 c 0,-0.232084 -0.03508,-0.404861 -0.106076,-0.520121 -0.07097,-0.115195 -0.177792,-0.172711 -0.319694,-0.172711 -0.156134,0 -0.27882,0.0626 -0.366494,0.188637 -0.08849,0.125259 -0.141088,0.314678 -0.159424,0.567671 z m 3.264091,-0.205443 v 1.472655 h 0.360632 v 0.360632 h -1.447544 v -0.360632 h 0.360632 v -1.963431 h -0.360632 v -0.360698 h 1.086912 v 0.505954 c 0.207039,-0.37734 0.492535,-0.566043 0.855676,-0.566043 0.05846,0 0.116074,0.01006 0.171115,0.03003 v 0.781484 h -0.420772 v -0.245437 c -0.230391,0 -0.432381,0.115195 -0.606037,0.345521 z m 2.475182,-0.34552 c 0.109398,-0.188703 0.240357,-0.32979 0.393201,-0.424141 0.152747,-0.09435 0.328063,-0.141902 0.525103,-0.141902 0.241237,0 0.429874,0.07514 0.565913,0.224593 0.136104,0.150272 0.203749,0.357246 0.203749,0.621963 v 1.537662 h 0.360632 v 0.360632 h -1.38752 v -0.360632 h 0.300673 v -1.453342 c 0,-0.137797 -0.02677,-0.242115 -0.07937,-0.311453 -0.0526,-0.06927 -0.132717,-0.103536 -0.239575,-0.103536 -0.102656,0 -0.207039,0.03345 -0.313896,0.09933 -0.107705,0.06602 -0.217103,0.164504 -0.328911,0.296342 v 1.472655 h 0.300479 v 0.360632 h -1.387391 v -0.360632 h 0.360632 v -1.963431 h -0.360632 v -0.360698 h 1.086912 z m 3.438496,-0.505954 v 2.324129 h 0.360632 v 0.360632 H 84.47577 v -0.360632 h 0.360633 V 33.054696 H 84.47577 V 32.693998 Z M 84.83637,32.243216 v -0.726247 h 0.726247 v 0.726247 z m 2.476875,1.843318 v 0.931593 h 0.27045 v 0.360632 h -1.327301 v -0.360632 h 0.360632 v -3.140526 h -0.360632 v -0.360632 h 1.056851 v 2.40923 h 0.170302 l 0.800569,-0.871503 h -0.271264 v -0.360698 h 0.998358 v 0.360698 h -0.246251 l -0.703776,0.766307 0.935045,1.197124 h 0.210361 v 0.360632 h -0.734636 l -0.988457,-1.292225 z"
     id="path85"
     style="clip-rule:evenodd;display:inline;fill:#b3b3b3;fill-rule:nonzero;stroke:none;stroke-width:0;image-rendering:optimizeQuality;shape-rendering:geometricPrecision;text-rendering:geometricPrecision" /></svg>
